<?xml version="1.0" encoding="iso-8859-1"?>
<!-- Generator: Adobe Illustrator 19.0.0, SVG Export Plug-In . SVG Version: 6.00 Build 0)  -->
<svg version="1.1" id="Capa_1" xmlns="http://www.w3.org/2000/svg" xmlns:xlink="http://www.w3.org/1999/xlink" x="0px" y="0px"
	 viewBox="0 0 512 512" style="enable-background:new 0 0 512 512;" xml:space="preserve">
<g>
	<path style="fill:#FFDCA4;" d="M434.618,390.225c-9.78-9.78-25.15-11.18-36.536-3.328l-60.175,45.734
		c8.594-7.988,9.238-25.116-0.419-34.773l0,0c-3.751-3.751-8.838-5.858-14.142-5.858h-58.058c-7.957,0-15.587-3.161-21.213-8.787
		l-53.184-53.433c-9.377-9.377-22.095-14.645-35.355-14.645H68.42v142.198L158.63,502h182.5l91.382-72.614
		C444.719,419.556,445.701,401.308,434.618,390.225z"/>
	<path style="fill:#FFDCA4;" d="M266.964,437.5h-57.105c-17.221,0-33.736-6.841-45.913-19.018l-12.448-12.448"/>
</g>
<path d="M266.964,447.5h-57.105c-20.015,0-38.832-7.794-52.984-21.946l-12.448-12.448c-3.905-3.905-3.905-10.237,0-14.143
	c3.905-3.904,10.237-3.904,14.143,0l12.448,12.448c10.374,10.375,24.169,16.089,38.842,16.089h57.105c5.523,0,10,4.478,10,10
	S272.487,447.5,266.964,447.5z"/>
<path d="M302.96,447.5c-0.65,0-1.31-0.07-1.95-0.2c-0.64-0.12-1.27-0.32-1.87-0.57s-1.18-0.56-1.73-0.92
	c-0.54-0.359-1.06-0.779-1.52-1.24c-0.46-0.46-0.88-0.97-1.24-1.52c-0.36-0.54-0.67-1.12-0.92-1.73c-0.25-0.6-0.44-1.229-0.57-1.869
	c-0.13-0.641-0.2-1.301-0.2-1.95c0-0.65,0.07-1.31,0.2-1.95s0.32-1.27,0.57-1.87c0.25-0.61,0.56-1.189,0.92-1.729
	c0.36-0.551,0.78-1.061,1.24-1.521s0.97-0.88,1.52-1.24c0.54-0.37,1.13-0.67,1.73-0.92s1.23-0.45,1.87-0.58
	c1.29-0.26,2.62-0.26,3.91,0c0.64,0.13,1.26,0.33,1.87,0.58c0.6,0.25,1.18,0.561,1.72,0.92c0.55,0.36,1.06,0.78,1.52,1.24
	c0.47,0.46,0.88,0.97,1.25,1.521c0.36,0.54,0.67,1.119,0.92,1.729c0.25,0.601,0.44,1.23,0.57,1.87c0.13,0.64,0.2,1.3,0.2,1.95
	c0,2.63-1.07,5.21-2.94,7.069c-0.46,0.461-0.97,0.881-1.52,1.24c-0.54,0.36-1.12,0.67-1.72,0.92c-0.61,0.25-1.23,0.45-1.87,0.57
	C304.27,447.43,303.61,447.5,302.96,447.5z"/>
<rect x="26.63" y="306" style="fill:#00599A;" width="41.79" height="178"/>
<path d="M441.69,383.153L441.69,383.153c-13.196-13.196-33.925-15.082-49.284-4.488c-0.127,0.088-0.252,0.178-0.374,0.27
	l-38.292,29.103c-1.395-6.603-4.565-12.636-9.18-17.251c-5.667-5.666-13.201-8.787-21.213-8.787h-58.058
	c-5.342,0-10.365-2.08-14.126-5.842l-53.2-53.449c-11.333-11.333-26.4-17.574-42.426-17.574h-77.16
	c-0.44-5.116-4.726-9.135-9.956-9.135H26.63c-5.523,0-10,4.478-10,10v178c0,5.522,4.477,10,10,10h41.79c5.523,0,10-4.478,10-10
	v-10.556l75.772,37.518c1.38,0.683,2.898,1.038,4.438,1.038h182.5c2.259,0,4.452-0.766,6.221-2.171l91.433-72.655
	c8.026-6.463,12.947-16.071,13.501-26.362C452.838,400.522,448.976,390.44,441.69,383.153z M58.42,474H36.63V316h21.79v141.333
	C58.42,457.333,58.42,474,58.42,474z M432.314,409.737c-0.252,4.697-2.41,8.909-6.022,11.819L337.641,492h-176.67l-82.55-40.874
	V325.135h77.116c10.683,0,20.728,4.161,28.268,11.7l53.2,53.449c7.555,7.555,17.6,11.716,28.284,11.716h58.058
	c2.671,0,5.182,1.04,7.071,2.93c2.7,2.699,4.202,6.761,4.122,11.143c-0.069,3.787-1.388,7.326-3.44,9.234
	c-3.904,3.629-4.276,9.683-0.844,13.762c3.433,4.08,9.46,4.75,13.703,1.524l59.973-45.58c7.396-4.983,17.296-4.036,23.617,2.283l0,0
	C430.873,400.622,432.566,405.04,432.314,409.737z"/>
<circle style="fill:#00599A;" cx="337.08" cy="205.8" r="146.33"/>
<g>
	<path style="fill:#4FC6E0;" d="M456.691,121.498l28.679-28.679l-32.346-32.346l-28.211,28.211
		C437.074,97.883,447.841,108.965,456.691,121.498z"/>
	<path style="fill:#4FC6E0;" d="M337.079,59.473c7.921,0,15.701,0.629,23.28,1.84c4.772-5.444,7.662-12.563,7.662-20.371
		c0-17.089-13.853-30.942-30.942-30.942s-30.942,13.853-30.942,30.942c0,7.809,2.891,14.928,7.663,20.373
		C321.379,60.103,329.158,59.473,337.079,59.473z"/>
</g>
<path style="fill:#FFDCA4;" d="M436.47,205.805v0.566c-0.161,28.941-12.692,54.948-32.569,73.018
	c-17.651,16.03-41.099,25.808-66.823,25.808c-54.897,0-99.392-44.502-99.392-99.392c0-54.157,43.305-98.196,97.186-99.367
	c0.733-0.026,1.467-0.026,2.206-0.026C391.975,106.413,436.47,150.908,436.47,205.805z"/>
<path style="fill:#E54A59;" d="M436.47,205.805v0.566h-99.392v-99.958C391.975,106.413,436.47,150.908,436.47,205.805z"/>
<path d="M492.441,99.891c3.905-3.905,3.905-10.237,0-14.143l-32.346-32.347c-1.876-1.875-4.419-2.929-7.071-2.929
	s-5.196,1.054-7.071,2.929l-22.3,22.299c-14.456-9.651-30.6-16.963-47.891-21.381c1.477-4.269,2.258-8.784,2.258-13.377
	C378.021,18.366,359.654,0,337.079,0c-22.575,0-40.942,18.366-40.942,40.942c0,4.593,0.781,9.109,2.258,13.377
	c-67.551,17.26-117.646,78.629-117.646,151.483c0,86.201,70.129,156.33,156.33,156.33s156.33-70.129,156.33-156.33
	c0-30.465-8.768-58.916-23.9-82.979L492.441,99.891z M453.023,74.615l18.204,18.204l-13.531,13.531
	c-5.473-6.634-11.475-12.8-17.96-18.449L453.023,74.615z M318.483,50.569c-1.531-2.952-2.347-6.25-2.347-9.627
	c0-11.548,9.395-20.942,20.942-20.942s20.942,9.395,20.942,20.942c0,3.377-0.815,6.674-2.346,9.626
	c-0.439-0.052-0.88-0.088-1.32-0.136c-0.79-0.087-1.582-0.17-2.375-0.245c-0.589-0.056-1.178-0.109-1.768-0.158
	c-0.962-0.08-1.927-0.15-2.894-0.213c-0.455-0.029-0.91-0.061-1.366-0.087c-1.216-0.068-2.435-0.12-3.658-0.161
	c-0.225-0.007-0.451-0.019-0.676-0.026c-1.508-0.043-3.02-0.071-4.539-0.071c-1.518,0-3.029,0.027-4.537,0.071
	c-0.201,0.006-0.402,0.016-0.603,0.023c-1.251,0.041-2.5,0.094-3.744,0.164c-0.431,0.024-0.862,0.055-1.293,0.082
	c-1,0.065-1.998,0.137-2.993,0.22c-0.557,0.046-1.113,0.097-1.669,0.149c-0.844,0.08-1.686,0.168-2.526,0.261
	C319.304,50.487,318.893,50.521,318.483,50.569z M337.079,342.133c-75.172,0-136.33-61.157-136.33-136.33
	c0-68.017,50.069-124.556,115.285-134.705c1.4-0.217,2.804-0.414,4.214-0.586c0.424-0.053,0.851-0.098,1.277-0.147
	c1.475-0.166,2.954-0.318,4.437-0.437c0.095-0.008,0.188-0.018,0.283-0.025c1.72-0.134,3.444-0.234,5.17-0.304
	c0.15-0.006,0.301-0.012,0.451-0.017c3.475-0.13,6.957-0.129,10.429,0c0.165,0.006,0.331,0.012,0.496,0.019
	c1.706,0.07,3.41,0.168,5.108,0.301c0.144,0.011,0.287,0.027,0.431,0.038c1.421,0.115,2.837,0.26,4.25,0.419
	c0.46,0.052,0.922,0.101,1.38,0.158c1.381,0.17,2.757,0.363,4.127,0.575c65.233,10.133,115.32,66.681,115.32,134.711
	C473.408,280.976,412.251,342.133,337.079,342.133z"/>
<path d="M337.078,96.413c-0.832,0-1.658,0.002-2.483,0.029c-28.691,0.638-55.56,12.289-75.664,32.812
	c-20.148,20.565-31.245,47.752-31.245,76.551c0,60.319,49.073,109.393,109.392,109.393c27.257,0,53.376-10.088,73.55-28.409
	c22.609-20.553,35.673-49.843,35.842-80.417v-0.566C446.47,145.486,397.397,96.413,337.078,96.413z M415.834,163.549
	c0.089,0.165,0.174,0.331,0.262,0.496c0.523,0.986,1.034,1.98,1.52,2.987c0.009,0.018,0.018,0.036,0.027,0.054
	c0.492,1.019,0.959,2.053,1.413,3.093c0.074,0.169,0.15,0.338,0.222,0.507c0.429,1,0.838,2.009,1.231,3.027
	c0.077,0.199,0.152,0.399,0.228,0.599c0.389,1.031,0.763,2.069,1.115,3.117c0.049,0.145,0.094,0.291,0.142,0.437
	c0.347,1.053,0.678,2.114,0.987,3.184c0.021,0.072,0.043,0.142,0.064,0.214c0.313,1.094,0.6,2.199,0.871,3.309
	c0.047,0.191,0.095,0.382,0.14,0.574c0.257,1.08,0.493,2.168,0.71,3.263c0.04,0.202,0.078,0.405,0.117,0.607
	c0.214,1.119,0.411,2.244,0.582,3.378c0.018,0.118,0.032,0.237,0.05,0.355c0.163,1.111,0.306,2.229,0.428,3.353
	c0.01,0.089,0.021,0.177,0.031,0.266h-78.895v-79.395c0.118,0.013,0.237,0.027,0.355,0.041c1.143,0.132,2.282,0.282,3.412,0.457
	c0.119,0.018,0.236,0.04,0.354,0.059c1.098,0.175,2.19,0.371,3.275,0.585c0.133,0.026,0.268,0.05,0.401,0.077
	c1.102,0.223,2.195,0.472,3.282,0.735c0.214,0.052,0.429,0.104,0.643,0.157c1.062,0.266,2.117,0.55,3.164,0.854
	c0.203,0.059,0.405,0.121,0.607,0.181c1.076,0.321,2.145,0.655,3.203,1.015c0.084,0.029,0.166,0.06,0.25,0.088
	c1.02,0.35,2.031,0.721,3.034,1.106c0.169,0.065,0.339,0.127,0.507,0.193c1.006,0.394,2.002,0.808,2.99,1.237
	c0.215,0.093,0.429,0.187,0.642,0.282c0.977,0.433,1.946,0.881,2.904,1.348c0.184,0.09,0.367,0.183,0.55,0.274
	c0.965,0.479,1.923,0.97,2.868,1.482c0.063,0.034,0.127,0.068,0.19,0.102c0.956,0.521,1.898,1.063,2.832,1.617
	c0.182,0.108,0.365,0.214,0.546,0.323c0.904,0.545,1.796,1.107,2.679,1.682c0.199,0.13,0.397,0.261,0.595,0.392
	c0.883,0.586,1.757,1.184,2.618,1.8c0.151,0.108,0.3,0.22,0.451,0.329c0.832,0.603,1.655,1.219,2.466,1.85
	c0.094,0.073,0.189,0.144,0.283,0.217c0.848,0.666,1.68,1.35,2.503,2.046c0.172,0.145,0.345,0.29,0.516,0.437
	c0.795,0.682,1.578,1.378,2.348,2.087c0.17,0.156,0.339,0.315,0.507,0.472c0.78,0.729,1.551,1.469,2.305,2.225
	c0.104,0.105,0.206,0.212,0.31,0.318c0.719,0.729,1.426,1.47,2.12,2.223c0.106,0.115,0.214,0.227,0.319,0.342
	c0.72,0.789,1.423,1.594,2.115,2.409c0.147,0.174,0.295,0.347,0.441,0.522c0.676,0.809,1.339,1.628,1.986,2.461
	c0.131,0.169,0.26,0.339,0.39,0.509c0.665,0.867,1.318,1.742,1.952,2.633c0.051,0.072,0.1,0.146,0.152,0.219
	c0.612,0.867,1.206,1.746,1.788,2.635c0.095,0.145,0.192,0.288,0.285,0.433c0.582,0.902,1.147,1.816,1.697,2.739
	c0.114,0.191,0.227,0.381,0.339,0.573C414.796,161.668,415.324,162.603,415.834,163.549z M397.178,271.985
	c-16.481,14.969-37.826,23.212-60.1,23.212c-49.291,0-89.392-40.102-89.392-89.393c0-45.528,34.939-83.796,79.392-88.823v89.389
	c0,5.523,4.477,10,10,10h88.757C423.292,237.602,413.153,257.464,397.178,271.985z"/>
<g>
</g>
<g>
</g>
<g>
</g>
<g>
</g>
<g>
</g>
<g>
</g>
<g>
</g>
<g>
</g>
<g>
</g>
<g>
</g>
<g>
</g>
<g>
</g>
<g>
</g>
<g>
</g>
<g>
</g>
</svg>
